<?xml version="1.0" encoding="UTF-8"?>
<svg width="386px" height="90px" viewBox="0 0 386 90" version="1.1" xmlns="http://www.w3.org/2000/svg" xmlns:xlink="http://www.w3.org/1999/xlink">
    <title>Logo</title>
    <g id="Page-2" stroke="none" stroke-width="1" fill="none" fill-rule="evenodd">
        <g id="A2" transform="translate(-676.000000, -358.000000)" fill="#029EFF" fill-rule="nonzero">
            <g id="Logo" transform="translate(676.000000, 358.620000)">
                <g id="v" transform="translate(0.000000, 2.296000)">
                    <polygon id="Path" points="5.68434189e-14 0 31.324 84.788 50.02 84.788 81.344 0 61.008 0 40.672 61.5 20.336 0"></polygon>
                </g>
                <g id="e" transform="translate(81.344000, 0.000000)">
                    <path d="M41,2.27373675e-13 C28.372,2.27373675e-13 18.368,4.264 11.152,12.956 C3.608,21.484 -5.68434189e-14,31.98 -5.68434189e-14,44.608 C-5.68434189e-14,58.712 3.936,69.7 11.808,77.736 C19.188,85.444 29.192,89.38 41.82,89.38 C53.136,89.38 62.484,86.1 70.028,79.704 C75.932,74.456 79.868,67.732 81.836,59.86 L63.14,59.86 C60.844,64.616 58.384,68.06 55.596,70.192 C51.988,72.816 47.396,74.128 41.656,74.128 C34.932,74.128 29.684,71.996 26.076,67.896 C22.468,63.796 20.336,57.728 19.68,49.856 L83.148,49.856 C83.148,34.604 79.704,22.632 72.98,14.104 C65.6,4.592 54.94,2.27373675e-13 41,2.27373675e-13 Z M41.492,15.252 C54.612,15.252 61.992,21.976 63.632,35.752 L20.008,35.752 C21.156,29.028 23.452,23.944 26.896,20.5 C30.504,16.892 35.26,15.252 41.492,15.252 Z" id="Shape"></path>
                </g>
                <g id="o" transform="translate(300.648000, 0.000000)">
                    <path d="M42.64,0 C29.684,0 19.352,4.1 11.644,12.628 C3.772,20.992 -5.68434189e-14,31.652 -5.68434189e-14,44.772 C-5.68434189e-14,57.728 3.772,68.388 11.48,76.588 C19.352,85.116 29.684,89.38 42.64,89.38 C55.432,89.38 65.928,85.116 73.8,76.588 C81.344,68.388 85.28,57.728 85.28,44.772 C85.28,31.652 81.344,20.992 73.636,12.628 C65.764,4.1 55.432,0 42.64,0 Z M42.64,15.252 C50.348,15.252 56.416,18.204 60.68,24.436 C64.288,29.684 66.256,36.572 66.256,44.772 C66.256,52.808 64.288,59.532 60.68,64.944 C56.416,71.012 50.348,74.128 42.64,74.128 C34.768,74.128 28.864,71.012 24.6,64.944 C20.992,59.696 19.188,52.972 19.188,44.772 C19.188,36.572 20.992,29.684 24.6,24.436 C28.864,18.204 34.768,15.252 42.64,15.252 Z" id="Shape"></path>
                </g>
                <g id="z" transform="translate(225.864000, 2.296000)">
                    <polygon id="Path" points="1.64 4.54747351e-13 1.64 15.252 46.904 15.252 0 72.16 0 84.788 74.784 84.788 74.784 69.536 24.6 69.536 72.16 11.972 72.16 4.54747351e-13"></polygon>
                </g>
                <g id="r" transform="translate(169.840000, 1.148000)">
                    <path d="M40.016,0 C34.768,0 30.34,1.476 26.568,4.592 C23.452,6.888 20.828,10.168 18.532,14.432 L18.532,2.296 L0,2.296 L0,87.084 L18.532,87.084 L18.532,42.148 C18.532,34.932 20.664,29.192 25.256,24.764 C29.192,20.828 33.62,19.024 38.54,19.024 C42.476,19.024 46.412,19.516 50.676,20.828 L50.676,2.132 C47.724,0.656 44.116,0 40.016,0 Z" id="Path"></path>
                </g>
            </g>
        </g>
    </g>
</svg>